<svg width="96" height="96" viewBox="0 0 96 96" fill="none" xmlns="http://www.w3.org/2000/svg">
  <defs>
    <linearGradient id="launchGrad" x1="0" y1="0" x2="96" y2="96" gradientUnits="userSpaceOnUse">
      <stop offset="0" stop-color="#FF7A18" />
      <stop offset="1" stop-color="#AF002D" />
    </linearGradient>
    <linearGradient id="flameGrad" x1="29" y1="70" x2="67" y2="96" gradientUnits="userSpaceOnUse">
      <stop offset="0" stop-color="#FFCE00" />
      <stop offset="1" stop-color="#FF5C00" />
    </linearGradient>
  </defs>
  <rect width="96" height="96" rx="24" fill="#FFF4EC" />
  <path
    d="M48 14c-10.493 0-19 8.507-19 19v13.5L19.5 63h10l4 11 9-7 9 7 4-11h10L67 46.5V33c0-10.493-8.507-19-19-19Z"
    fill="url(#launchGrad)"
  />
  <circle cx="48" cy="34" r="9" fill="#FFEAE0" stroke="#FFF4EC" stroke-width="2" />
  <path
    d="M34 69c0 8.284 6.716 15 15 15s15-6.716 15-15l-15 5-15-5Z"
    fill="url(#flameGrad)"
  />
  <path
    d="M22 68c0 3.314 2.686 6 6 6"
    stroke="#FF9A3C"
    stroke-width="3"
    stroke-linecap="round"
  />
  <path
    d="M68 68c0 3.314-2.686 6-6 6"
    stroke="#FF9A3C"
    stroke-width="3"
    stroke-linecap="round"
  />
</svg>

