<svg width="96" height="96" viewBox="0 0 96 96" fill="none" xmlns="http://www.w3.org/2000/svg">
  <defs>
    <linearGradient id="workshopGrad" x1="18" y1="14" x2="78" y2="82" gradientUnits="userSpaceOnUse">
      <stop offset="0" stop-color="#70E000" />
      <stop offset="1" stop-color="#06D6A0" />
    </linearGradient>
    <linearGradient id="toolGrad" x1="32" y1="28" x2="68" y2="68" gradientUnits="userSpaceOnUse">
      <stop offset="0" stop-color="#FFD166" />
      <stop offset="1" stop-color="#EF476F" />
    </linearGradient>
  </defs>
  <rect width="96" height="96" rx="24" fill="#EEFFF5" />
  <rect x="20" y="28" width="56" height="40" rx="10" fill="url(#workshopGrad)" />
  <rect x="26" y="34" width="44" height="28" rx="6" fill="#F4FFF9" />
  <path
    d="M62 30V22H34v8"
    stroke="#70E000"
    stroke-width="4"
    stroke-linecap="round"
    stroke-linejoin="round"
  />
  <path
    d="M40 60v10M56 60v10"
    stroke="#70E000"
    stroke-width="4"
    stroke-linecap="round"
  />
  <path
    d="M42 40c0-3.314 2.686-6 6-6s6 2.686 6 6c0 2.167-1.117 4.077-2.806 5.19l2.472 6.286c.517 1.314-.452 2.774-1.87 2.774h-7.592c-1.418 0-2.387-1.46-1.87-2.774l2.472-6.286C43.117 44.077 42 42.167 42 40Z"
    fill="url(#toolGrad)"
  />
</svg>

